<svg aria-hidden="true" style="position: absolute; width: 0; height: 0; overflow: hidden;" version="1.1" xmlns="http://www.w3.org/2000/svg" xmlns:xlink="http://www.w3.org/1999/xlink">
<defs>
<symbol id="icon-logo" viewBox="0 0 72 32">
<path d="M42.831 15.743c0 0.257-0.008 0.513 0 0.77 0.090 2.611-0.746 4.963-2.088 7.181-0.45 0.744-0.88 1.5-1.267 2.277-0.32 0.639-0.764 1.086-1.455 1.348-0.386 0.146-0.744 0.398-1.067 0.658-1.489 1.199-3.178 2.058-4.985 2.662-1.2 0.401-2.436 0.755-3.739 0.739-0.389-0.004-0.778 0.112-1.168 0.113s-0.779-0.122-1.164-0.106c-1.681 0.070-3.239-0.434-4.785-0.964-1.688-0.577-3.178-1.489-4.58-2.576-1.978-1.533-3.388-3.464-4.424-5.674-0.559-1.191-1.013-2.421-1.142-3.743-0.021-0.22-0.096-0.437-0.162-0.649-0.47-1.483-0.2-2.938 0.091-4.415 0.223-1.13 0.451-2.247 0.885-3.32 1.145-2.838 2.964-5.162 5.483-6.987 2.1-1.52 4.451-2.455 7.006-2.856 2.933-0.461 5.795-0.129 8.573 0.947 1.386 0.539 2.694 1.221 3.836 2.125 1.065 0.843 2.026 1.829 2.934 2.837 0.823 0.914 1.407 2.001 1.928 3.112 0.815 1.734 1.346 3.529 1.292 5.458-0.012 0.357-0.003 0.71-0.004 1.063zM41.705 12.23c-0.081-0.606-0.132-1.308-0.284-1.99-0.433-1.961-1.597-3.491-3.149-4.741-0.881-0.711-1.842-1.328-2.788-1.956-0.321-0.213-0.693-0.408-1.068-0.474-0.963-0.173-1.936-0.334-2.912-0.383-1.693-0.084-3.214-0.51-4.493-1.658-0.941-0.844-1.966-0.926-2.944-0.183-1.108 0.842-2.37 1.336-3.656 1.825-0.942 0.358-1.85 0.81-2.756 1.256-0.757 0.373-1.198 0.956-1.187 1.838 0.006 0.495-0.227 0.908-0.696 1.182-0.392 0.23-0.768 0.484-1.127 0.761-1.002 0.769-1.783 1.635-1.952 2.979-0.133 1.063-0.463 2.114-1.211 2.99-0.25 0.301-0.405 0.667-0.446 1.052-0.069 0.795-0.040 1.599-0.020 2.398 0.006 0.214 0.101 0.443 0.213 0.632 0.258 0.445 0.539 0.877 0.842 1.294 0.734 0.994 1.371 2.013 1.519 3.277 0.143 1.224 0.749 2.221 1.775 2.982 1.486 1.103 2.918 2.274 4.426 3.348 0.811 0.579 1.678 1.085 2.747 1.202s2.117 0.401 3.076 0.926c0.201 0.106 0.421 0.171 0.648 0.194 1.352 0.142 2.604-0.184 3.792-0.801 0.372-0.193 0.756-0.369 1.141-0.537 0.928-0.405 1.957-0.671 2.766-1.235 0.899-0.629 1.861-0.908 2.893-1.084 0.446-0.076 0.811-0.255 1.101-0.579 0.347-0.384 0.667-0.79 1.028-1.16 0.373-0.383 0.643-0.79 0.708-1.335 0.1-0.836 0.467-1.574 0.932-2.283 0.788-1.198 1.236-2.521 1.469-3.929 0.061-0.369 0.096-0.681-0.092-1.006-0.542-0.938-0.321-2.002-0.492-3-0.087-0.54 0.113-1.13 0.197-1.803l-0.002 0.001zM35.178 2.863c-0.229-0.247-0.302-0.358-0.405-0.428-0.187-0.126-0.392-0.229-0.59-0.339-1.702-0.935-3.566-1.389-5.471-1.716-0.383-0.066-0.785-0.036-1.175-0.022-0.102 0.004-0.223 0.1-0.287 0.187-0.030 0.039 0.037 0.178 0.093 0.244 0.424 0.492 0.976 0.864 1.599 1.075 1.075 0.377 2.206 0.584 3.348 0.613 0.484 0.013 0.967 0.102 1.448 0.166 0.411 0.057 0.822 0.125 1.44 0.22zM20.716 29.804c-1.142-0.91-2.144-1.724-3.163-2.516-0.844-0.655-1.706-1.288-2.568-1.921-0.097-0.071-0.25-0.069-0.462-0.122 1.039 1.701 4.509 4.284 6.193 4.559zM13.019 8.561c0.689-0.513 1.326-1.053 2.026-1.5 0.981-0.623 1.356-1.398 1.125-2.729-0.696 0.555-1.193 1.224-1.73 1.831-0.567 0.641-0.988 1.404-1.461 2.121-0.037 0.058 0.023 0.172 0.040 0.276zM36.255 27.97c-0.643-0.043-1.29 0.067-1.693 0.406-0.765 0.642-1.675 0.964-2.602 1.285-0.486 0.168-0.945 0.415-1.403 0.651-0.063 0.032-0.075 0.206-0.062 0.308 0.004 0.034 0.176 0.091 0.246 0.068 0.832-0.276 1.691-0.499 2.478-0.869 0.966-0.452 1.872-1.024 2.796-1.554 0.097-0.053 0.148-0.178 0.238-0.294zM11.7 19.074c-0.185 0.531-0.148 0.825-0.032 1.138 0.322 0.869 0.518 1.785 1.099 2.544 0.215 0.281 0.259 0.911 0.657 0.775 0.35-0.118-0.060-0.617-0.083-0.953-0.092-1.283-0.784-2.318-1.64-3.504zM17.934 3.092l0.086 0.127c0.48-0.174 0.965-0.338 1.44-0.524 1.033-0.404 2.063-0.815 3.090-1.234 0.207-0.085 0.397-0.222 0.573-0.36 0.049-0.039 0.041-0.172 0.025-0.254-0.008-0.037-0.106-0.077-0.162-0.079-0.096 0.002-0.192 0.017-0.284 0.046-1.396 0.386-2.712 0.959-3.972 1.653-0.295 0.163-0.534 0.415-0.798 0.626zM42.448 16.875c0.084-0.096 0.15-0.135 0.155-0.18 0.136-1.398-0.016-2.784-0.212-4.166-0.010-0.069-0.109-0.169-0.176-0.177-0.074-0.009-0.19 0.051-0.235 0.115-0.074 0.102-0.12 0.222-0.134 0.346-0.074 1.14 0.003 2.284 0.229 3.405 0.045 0.226 0.237 0.425 0.372 0.657zM11.363 13.017c0.545-0.203 0.626-0.569 0.685-0.9 0.142-0.807 0.498-1.584 0.381-2.438-0.569 1.018-1.074 2.050-1.065 3.338h-0zM24.546 30.739c-1.221-0.527-1.552-0.582-2.639-0.434 0.461 0.17 0.875 0.441 1.292 0.445 0.435 0.006 0.906 0.525 1.347-0.011h-0z"></path>
<path d="M27.064 20.267c-0.835-0.015-1.408-0.355-1.833-1.013-0.395-0.614-1.054-0.933-1.656-1.311-0.76-0.477-1.378-1.014-1.553-1.98-0.122-0.655 0.020-1.224 0.293-1.741 0.229-0.432 0.637-0.834 1.067-1.091 0.465-0.279 0.851-0.542 1.066-1.056 0.243-0.592 0.856-0.628 1.399-0.735 0.511-0.1 1.031-0.165 1.534-0.29 0.689-0.171 1.314-0.118 1.818 0.405 0.389 0.406 0.843 0.697 1.35 0.943 0.527 0.256 0.701 0.555 0.536 1.089-0.112 0.363-0.004 0.61 0.135 0.9 0.152 0.316 0.308 0.637 0.412 0.97 0.347 1.11-0.052 2.044-1.121 2.539-0.662 0.306-1.169 0.715-1.334 1.433-0.066 0.289-0.251 0.454-0.513 0.529-0.528 0.151-1.065 0.275-1.598 0.41zM30.568 15.613c0.017-1.956-1.504-3.519-3.481-3.522-1.774 0-3.559 1.171-3.628 3.414-0.056 1.795 1.478 3.468 3.478 3.474 2.435 0.012 3.584-1.637 3.631-3.366zM23.44 17.482c0-0.251 0.025-0.379-0.004-0.495-0.262-1.062-0.433-2.114 0.162-3.138 0.043-0.073-0.056-0.225-0.089-0.34-0.117 0.037-0.258 0.044-0.346 0.115-0.983 0.786-1.421 2.675 0.277 3.858zM27.090 11.6c0.411 0.147 0.646 0.251 0.892 0.316 0.906 0.234 1.679 0.654 2.216 1.428 0.106 0.152 0.243 0.379 0.446 0.205 0.108-0.093 0.143-0.376 0.081-0.518-0.084-0.188-0.274-0.423-0.458-0.46-0.498-0.101-0.77-0.453-1.094-0.759-0.546-0.51-1.155-0.671-2.083-0.212zM27.034 19.298l-0.012-0.074c-0.261 0-0.524-0.022-0.781 0.009-0.132 0.016-0.252 0.125-0.377 0.192 0.114 0.098 0.213 0.253 0.345 0.285 0.702 0.173 1.41 0.21 2.102-0.054 0.118-0.045 0.25-0.105 0.324-0.197 0.066-0.079 0.087-0.219 0.074-0.325-0.005-0.040-0.169-0.099-0.25-0.086-0.475 0.073-0.949 0.164-1.421 0.25l-0.002 0.001zM30.624 17.293c0.486-0.088 0.704-0.355 0.732-0.766 0.021-0.346 0.016-0.694-0.015-1.039-0.008-0.091-0.138-0.173-0.212-0.259-0.108 0.1-0.328 0.234-0.308 0.294 0.197 0.6-0.215 1.137-0.196 1.769v0.001z"></path>
<path d="M35.072 20c-0.028 0.014-0.141 0.106-0.263 0.118-0.111 0.013-0.273-0.024-0.342-0.099-0.346-0.38-0.681-0.771-0.99-1.18-0.081-0.107-0.114-0.395-0.068-0.42 0.152-0.082 0.449-0.167 0.515-0.096 0.391 0.42 0.735 0.883 1.089 1.336 0.034 0.045 0.024 0.123 0.060 0.341z"></path>
<path d="M18.515 23.293c0.181 0.014 0.538 0.025 0.886 0.083 0.087 0.015 0.203 0.18 0.203 0.279s-0.1 0.269-0.187 0.29c-0.677 0.164-1.35 0.204-1.949-0.237-0.034-0.031-0.060-0.069-0.076-0.111s-0.023-0.087-0.019-0.132c0.013-0.066 0.118-0.158 0.188-0.163 0.26-0.021 0.52-0.009 0.954-0.009z"></path>
<path d="M39.725 9.411l0.256 0.137c-0.072 0.127-0.117 0.33-0.223 0.367-0.487 0.175-0.987 0.314-1.496 0.416-0.146 0.028-0.359-0.112-0.494-0.228-0.156-0.134-0.063-0.424 0.133-0.454 0.577-0.086 1.157-0.153 1.823-0.238z"></path>
<path d="M22.497 26.12c0.271 0.123 0.497 0.158 0.608 0.289 0.303 0.366 0.58 0.752 0.83 1.155 0.122 0.192 0.011 0.4-0.194 0.455-0.112 0.030-0.316-0.059-0.398-0.158-0.33-0.388-0.637-0.794-0.917-1.218-0.065-0.101 0.036-0.303 0.072-0.523z"></path>
<path d="M33.119 10.843c0.017-0.112 0-0.24 0.054-0.29 0.073-0.065 0.229-0.118 0.304-0.083 0.103 0.048 0.169 0.179 0.24 0.282 0.196 0.287 0.39 0.575 0.577 0.868 0.083 0.131 0.196 0.272 0.203 0.413 0.008 0.131-0.074 0.301-0.175 0.391-0.056 0.051-0.289 0.018-0.346-0.052-0.374-0.464-0.824-0.898-0.857-1.53z"></path>
<path d="M34.284 5.915c-0.081 0.474-0.114 0.822-0.208 1.156-0.059 0.18-0.172 0.34-0.324 0.458-0.107 0.085-0.295 0.072-0.446 0.103-0.012-0.138-0.056-0.281-0.031-0.412 0.079-0.403 0.185-0.802 0.28-1.202 0.007-0.031 0.005-0.064 0.015-0.095 0.075-0.242 0.236-0.426 0.494-0.326 0.13 0.051 0.191 0.272 0.22 0.318z"></path>
<path d="M27.296 8.996c0.228 0.028 0.522 0.043 0.804 0.109 0.096 0.023 0.238 0.191 0.221 0.264-0.029 0.13-0.14 0.301-0.257 0.339-0.186 0.056-0.384 0.057-0.571 0.003-0.324-0.101-0.626-0.134-0.95-0.002-0.212 0.087-0.412-0.004-0.469-0.21-0.076-0.276 0.137-0.41 0.377-0.449 0.255-0.041 0.519-0.035 0.844-0.053z"></path>
<path d="M32.351 22.606c-0.092 0.392-0.162 0.736-0.261 1.072-0.019 0.066-0.162 0.155-0.222 0.14-0.108-0.026-0.259-0.109-0.281-0.195-0.048-0.186-0.054-0.38-0.016-0.568 0.076-0.344 0.151-0.671 0.008-1.023-0.068-0.169-0.049-0.437 0.214-0.437 0.141 0 0.345 0.171 0.408 0.311 0.103 0.225 0.11 0.491 0.15 0.699z"></path>
<path d="M28.363 22.505c-0.053 0.092-0.078 0.201-0.148 0.247-0.427 0.287-0.854 0.574-1.303 0.825-0.115 0.064-0.316 0.024-0.462-0.018-0.214-0.062-0.259-0.337-0.081-0.448 0.491-0.307 0.985-0.611 1.491-0.894 0.081-0.045 0.243 0.004 0.348 0.054 0.071 0.035 0.101 0.147 0.155 0.233z"></path>
<path d="M22.926 4.089c0.069 0.039 0.2 0.074 0.217 0.137 0.169 0.608 0.333 1.219 0.467 1.835 0.037 0.171-0.195 0.266-0.351 0.164-0.49-0.321-0.795-1.512-0.509-2.009 0.030-0.049 0.102-0.074 0.175-0.126z"></path>
<path d="M28.981 5.817c-0.148-0.096-0.307-0.145-0.328-0.228-0.023-0.090 0.053-0.244 0.136-0.316 0.36-0.313 0.736-0.608 1.127-0.883 0.132-0.090 0.405-0.154 0.507-0.084 0.239 0.164 0.113 0.395-0.053 0.564-0.224 0.228-0.446 0.468-0.704 0.652-0.198 0.139-0.451 0.198-0.684 0.295z"></path>
<path d="M19.664 9.032l-0.358 0.33c-0.102-0.108-0.254-0.197-0.297-0.326-0.172-0.504-0.316-1.017-0.452-1.531-0.019-0.071 0.041-0.215 0.101-0.24 0.099-0.040 0.263-0.055 0.338 0 0.149 0.107 0.319 0.25 0.367 0.411 0.128 0.418 0.195 0.856 0.301 1.355z"></path>
<path d="M15.742 17.475c-0.329 0.587-0.578 1.188-1.19 1.508-0.103 0.054-0.331-0.015-0.441-0.101-0.187-0.145 0-0.265 0.091-0.389 0.287-0.385 0.553-0.787 0.858-1.158 0.079-0.095 0.278-0.142 0.414-0.129 0.092 0.008 0.168 0.161 0.268 0.268z"></path>
<path d="M19.454 17.525c0.171 0.097 0.296 0.126 0.319 0.189 0.038 0.104 0.058 0.268 0 0.34-0.094 0.115-0.255 0.182-0.394 0.259-0.359 0.201-0.714 0.413-1.088 0.584-0.114 0.052-0.32 0.036-0.421-0.034-0.209-0.145-0.135-0.377 0.032-0.479 0.513-0.313 1.053-0.587 1.551-0.859z"></path>
<path d="M38.036 14.867c-0.132 0.29-0.318 0.728-0.538 1.149-0.034 0.065-0.247 0.101-0.338 0.062-0.084-0.037-0.175-0.201-0.158-0.291 0.088-0.468 0.186-0.937 0.335-1.389 0.045-0.138 0.25-0.263 0.408-0.309 0.058-0.017 0.211 0.197 0.284 0.328 0.041 0.074 0.007 0.188 0.007 0.45z"></path>
<path d="M15.639 11.378c0.581 0.508 0.512 1.199 0.577 1.836 0.012 0.118-0.139 0.288-0.26 0.373-0.063 0.045-0.32-0.027-0.326-0.069-0.092-0.644-0.162-1.291-0.219-1.94-0.004-0.055 0.132-0.123 0.228-0.202z"></path>
<path d="M29.229 27.123c0.098 0.025 0.193 0.056 0.287 0.092 0.349 0.158 0.701 0.311 1.042 0.485 0.162 0.082 0.324 0.185 0.441 0.316 0.134 0.152-0.019 0.444-0.207 0.404-0.634-0.133-1.253-0.32-1.727-0.782-0.070-0.068-0.069-0.239-0.046-0.353 0.013-0.064 0.136-0.108 0.21-0.162z"></path>
<path d="M21.515 11.564c0.034 0.102 0.149 0.261 0.108 0.36-0.213 0.527-0.459 1.042-0.71 1.553-0.031 0.063-0.162 0.118-0.24 0.108-0.068-0.008-0.162-0.101-0.18-0.172-0.133-0.57 0.286-1.589 0.753-1.846 0.048-0.026 0.125-0.004 0.268-0.004z"></path>
<path d="M39.64 20.213c-0.073-0.045-0.225-0.1-0.304-0.206-0.032-0.042 0.070-0.235 0.158-0.296 0.39-0.276 0.788-0.54 1.203-0.776 0.112-0.064 0.344-0.068 0.427 0.003 0.076 0.066 0.087 0.316 0.019 0.407-0.348 0.472-0.786 0.832-1.503 0.869z"></path>
<path d="M37.232 24.279c-0.301-0.030-0.432-0.034-0.557-0.061-0.053-0.011-0.132-0.073-0.133-0.113-0.006-0.090 0.018-0.179 0.069-0.255 0.064-0.071 0.149-0.123 0.243-0.148 0.464-0.136 0.928-0.272 1.398-0.382 0.102-0.024 0.317 0.042 0.331 0.099 0.031 0.135-0.006 0.298-0.060 0.434-0.029 0.072-0.143 0.132-0.231 0.158-0.403 0.108-0.807 0.204-1.059 0.267z"></path>
<path d="M23.271 21.016c-0.033 0.138-0.087 0.443-0.191 0.731-0.026 0.072-0.229 0.14-0.322 0.114s-0.203-0.176-0.2-0.269c0.010-0.532 0.037-1.066 0.092-1.596 0.012-0.116 0.162-0.218 0.249-0.326 0.104 0.107 0.272 0.201 0.298 0.324 0.059 0.275 0.046 0.564 0.073 1.022z"></path>
<path d="M44.998 4.352c0-1.128 0.28-1.984 0.84-2.566 0.566-0.589 1.292-0.883 2.176-0.883s1.588 0.254 2.11 0.762c0.528 0.508 0.792 1.32 0.792 2.436s-0.28 1.959-0.84 2.529c-0.56 0.57-1.308 0.855-2.243 0.855-0.808 0-1.47-0.226-1.986-0.679-0.267-0.236-0.477-0.561-0.63-0.976-0.146-0.421-0.22-0.914-0.22-1.478zM47.986 0.996c-0.643 0-1.171 0.279-1.585 0.837-0.407 0.558-0.611 1.376-0.611 2.455s0.194 1.866 0.582 2.362c0.388 0.496 0.904 0.744 1.546 0.744 0.649 0 1.177-0.279 1.585-0.837 0.414-0.564 0.62-1.379 0.62-2.445 0-1.072-0.197-1.86-0.592-2.362-0.388-0.502-0.904-0.753-1.546-0.753z"></path>
<path d="M52.568 7.449h-0.792v-6.509h0.792v2.994h3.102v-2.994h0.792v6.509h-0.792v-3.422h-3.102v3.422z"></path>
<path d="M60.535 7.449h-0.124l0.83-6.509h0.315l2.005 6.016 1.995-6.016h0.315l0.83 6.509h-0.792l-0.659-5.207-1.728 5.207h-0.601l-1.747-5.142-0.64 5.142z"></path>
<path d="M71.989 0.94c0.121 0.118 0.181 0.27 0.181 0.456 0 0.155-0.035 0.313-0.105 0.474l-1.709 3.375v2.204h-0.792v-1.999l-1.909-4.51h0.811l1.823 4.193 1.661-3.264c0.069-0.155 0.105-0.316 0.105-0.484s-0.048-0.298-0.144-0.391l0.077-0.056z"></path>
<path d="M1.346 9.159c0.493-0.022 0.976-0.033 1.447-0.033 0.482 0 0.987 0.049 1.514 0.147 0.538 0.098 1.065 0.284 1.581 0.557 0.527 0.262 0.97 0.606 1.329 1.032 0.37 0.415 0.667 0.967 0.892 1.655s0.336 1.524 0.336 2.507c0 0.983-0.168 1.868-0.505 2.654-0.325 0.776-0.774 1.371-1.346 1.786-1.11 0.808-2.45 1.213-4.020 1.213-0.55 0-1.127-0.022-1.733-0.066h-0.841v-11.453h1.346zM1.396 20.481c0.236 0.022 0.533 0.033 0.892 0.033s0.628-0.005 0.807-0.016c0.179-0.011 0.426-0.055 0.74-0.131 0.314-0.087 0.606-0.202 0.875-0.344s0.55-0.35 0.841-0.623c0.303-0.284 0.561-0.617 0.774-1 0.482-0.896 0.723-2.065 0.723-3.506 0-1.027-0.129-1.912-0.387-2.654-0.258-0.754-0.555-1.311-0.891-1.671-0.325-0.36-0.723-0.645-1.194-0.852-0.471-0.219-0.847-0.344-1.127-0.377s-0.606-0.049-0.976-0.049c-0.37 0-0.729 0.016-1.077 0.049v11.142z"></path>
<path d="M45.271 20.612h-0.219v-11.469h0.572l6.998 10.601v-10.601h0.219v11.469h-1.228l-6.342-9.503v9.503z"></path>
<path d="M63.199 9.142h0.219v6.554c0 1.715-0.348 2.977-1.043 3.785-0.695 0.797-1.604 1.196-2.725 1.196-0.706 0-1.306-0.060-1.8-0.18-0.493-0.131-0.959-0.366-1.396-0.705-0.897-0.677-1.346-2.043-1.346-4.096v-6.554h1.396v6.538c0 1.988 0.308 3.315 0.925 3.982 0.314 0.328 0.639 0.552 0.976 0.672 0.348 0.12 0.763 0.18 1.245 0.18 1.077 0 1.934-0.382 2.574-1.147 0.65-0.776 0.976-2.005 0.976-3.687v-6.538z"></path>
<path d="M69.156 20.612h-1.396v-11.306h-2.91v-0.164h7.233v0.164h-2.927v11.306z"></path>
</symbol>
<symbol id="icon-burger" viewBox="0 0 60 32">
<path d="M2 0h56c1.105 0 2 0.895 2 2s-0.895 2-2 2h-56c-1.105 0-2-0.895-2-2s0.895-2 2-2z"></path>
<path d="M2 14h56c1.105 0 2 0.895 2 2s-0.895 2-2 2h-56c-1.105 0-2-0.895-2-2s0.895-2 2-2z"></path>
<path d="M2 28h56c1.105 0 2 0.895 2 2s-0.895 2-2 2h-56c-1.105 0-2-0.895-2-2s0.895-2 2-2z"></path>
</symbol>
</defs>
</svg>
